<svg xmlns="http://www.w3.org/2000/svg" xmlns:xlink="http://www.w3.org/1999/xlink" id="Layer_1" x="0" y="0" version="1.1" viewBox="0 0 212 212" xml:space="preserve" style="enable-background:new 0 0 212 212"><style type="text/css">.st0{fill:none;stroke:#1e2126;stroke-width:6;stroke-linecap:round;stroke-linejoin:round;stroke-miterlimit:10}.st1{fill:#1e2126}.st2{fill:#7289da}.st3{fill:none;stroke:#1e2126;stroke-width:4;stroke-linecap:round;stroke-linejoin:round;stroke-miterlimit:10}.st4{fill:#c9d2f0}.st5{fill:#f3f8ff}.st6{fill:#fff}.st7{fill:#ffd671}.st8{fill:#ffad45}.st9{fill:none;stroke:#d5dbed;stroke-width:2;stroke-linecap:round;stroke-linejoin:round;stroke-miterlimit:10}</style><g><g><path d="M82.8,120.7c0,0,2,28,18.2,28" class="st0"/><path d="M112.5,176h-3.2c-12.4,0-22.4-10-22.4-22.4v0c0-2.9,0.6-5.9,1.7-8.6l3.6-8.7c1.1-2.7,1.7-5.6,1.7-8.6V117 c0-9.4,7.6-17,17-17h0c9.4,0,17,7.6,17,17v10.8c0,2.9,0.6,5.9,1.7,8.6l3.6,8.7c1.1,2.7,1.7,5.6,1.7,8.6v0 C134.9,166,124.9,176,112.5,176z" class="st1"/></g><g><g><rect width="12" height="70" x="36.9" y="72" class="st2"/><polyline points="48.9 105 48.9 142 36.9 142 36.9 72 48.9 72" class="st3"/></g><g><rect width="18" height="20" x="33.9" y="133" class="st4"/><rect width="18" height="20" x="33.9" y="133" class="st3"/></g></g><g><g><rect width="12" height="70" x="168.9" y="72" class="st2"/><rect width="12" height="70" x="168.9" y="72" class="st3"/></g><g><rect width="18" height="20" x="165.9" y="133" class="st4"/><rect width="18" height="20" x="165.9" y="133" class="st3"/></g></g><path d="M179.9,192h-142c-2.2,0-4-1.8-4-4v-40c0-2.2,1.8-4,4-4h142c2.2,0,4,1.8,4,4v40 C183.9,190.2,182.1,192,179.9,192z" class="st5"/><path d="M126.9,192h-89c-2.2,0-4-1.8-4-4v-40c0-2.2,1.8-4,4-4h142c2.2,0,4,1.8,4,4v40c0,2.2-1.8,4-4,4h-19.7" class="st3"/><line x1="142.7" x2="137.7" y1="192" y2="192" class="st3"/><g><path d="M54.9,92.4L54.9,92.4c-9.9,0-18-8.1-18-18V68h36v6.4C72.9,84.3,64.8,92.4,54.9,92.4z" class="st6"/><path d="M90.9,92.4L90.9,92.4c-9.9,0-18-8.1-18-18V68h36v6.4C108.9,84.3,100.8,92.4,90.9,92.4z" class="st7"/><path d="M126.9,92.4L126.9,92.4c-9.9,0-18-8.1-18-18V68h36v6.4C144.9,84.3,136.8,92.4,126.9,92.4z" class="st6"/><path d="M162.9,92.4L162.9,92.4c-9.9,0-18-8.1-18-18V68h36v6.4C180.9,84.3,172.8,92.4,162.9,92.4z" class="st7"/><path d="M72.9,68.4h-36V28c0-4.4,3.6-8,8-8h28V68.4z" class="st4"/><rect width="36" height="48.4" x="72.9" y="20" class="st8"/><rect width="36" height="48.4" x="108.9" y="20" class="st4"/><path d="M180.9,68.4h-36V20h28c4.4,0,8,3.6,8,8V68.4z" class="st8"/><path d="M144.9,20v48v0.4v6c0,9.9,8.1,18,18,18l0,0c9.9,0,18-8.1,18-18v-6V68V28c0-4.4-3.6-8-8-8H144.9z" class="st3"/><path d="M108.9,20v48v0.4v6c0,9.9,8.1,18,18,18l0,0c9.9,0,18-8.1,18-18v-6V68V20H108.9z" class="st3"/><path d="M72.9,20v48v0.4v6c0,9.9,8.1,18,18,18l0,0c9.9,0,18-8.1,18-18v-6V68V20H72.9z" class="st3"/><path d="M44.9,20c-4.4,0-8,3.6-8,8v40v0.4v6c0,9.9,8.1,18,18,18l0,0c9.9,0,18-8.1,18-18v-6V68V20H44.9z" class="st3"/></g><g><g><line x1="7.5" x2="7.5" y1="92.4" y2="102.8" class="st9"/><line x1="12.8" x2="2.3" y1="97.6" y2="97.6" class="st9"/></g><g><line x1="196.5" x2="196.5" y1="115.5" y2="125.9" class="st9"/><line x1="201.7" x2="191.2" y1="120.7" y2="120.7" class="st9"/></g><g><line x1="24.7" x2="22.8" y1="110.7" y2="113.2" class="st9"/><line x1="14.7" x2="12.8" y1="121" y2="123.5" class="st9"/><line x1="25.2" x2="23" y1="123.2" y2="120.8" class="st9"/><line x1="14.5" x2="12.3" y1="113.4" y2="111" class="st9"/></g></g></g></svg>