<svg xmlns="http://www.w3.org/2000/svg" xmlns:xlink="http://www.w3.org/1999/xlink" id="Layer_1" x="0" y="0" version="1.1" viewBox="0 0 212 212" xml:space="preserve" style="enable-background:new 0 0 212 212"><style type="text/css">.st0{fill:#f3f8ff}.st1{fill:none;stroke:#1e2126;stroke-width:4;stroke-linecap:round;stroke-linejoin:round;stroke-miterlimit:10}.st2{fill:#c9d2f0}.st3{fill:#7289da}.st4{fill:#ff6f57}.st5{fill:#fff}.st6{fill:none;stroke:#d5dbed;stroke-width:2;stroke-linecap:round;stroke-linejoin:round;stroke-miterlimit:10}</style><g><rect width="67.5" height="34" x="41.3" y="29" class="st0"/><path d="M150.1,29h-100v146c0,4.4,3.6,8,8,8h104c4.4,0,8-3.6,8-8V49C170.1,38,161.1,29,150.1,29z" class="st0"/><line x1="50.1" x2="50.1" y1="92.2" y2="70.5" class="st1"/><line x1="50.1" x2="50.1" y1="106" y2="101" class="st1"/><path d="M170.1,165v10c0,4.4-3.6,8-8,8h-104c-4.4,0-8-3.6-8-8v-58.5" class="st1"/><path d="M37.1,29h13h100c11,0,20,9,20,20v91" class="st1"/><g><path d="M75.5,58.2H100c1.7,0,3-1.3,3-3v0c0-1.7-1.3-3-3-3H75.5c-1.7,0-3,1.3-3,3v0C72.5,56.8,73.8,58.2,75.5,58.2z" class="st2"/><path d="M76.5,80.2h67.2c2.2,0,4-1.8,4-4v0c0-2.2-1.8-4-4-4H76.5c-2.2,0-4,1.8-4,4v0C72.5,78.4,74.3,80.2,76.5,80.2z" class="st2"/><path d="M76.5,96.2h67.2c2.2,0,4-1.8,4-4v0c0-2.2-1.8-4-4-4H76.5c-2.2,0-4,1.8-4,4v0C72.5,94.4,74.3,96.2,76.5,96.2z" class="st2"/><path d="M76.5,112.2h67.2c2.2,0,4-1.8,4-4v0c0-2.2-1.8-4-4-4H76.5c-2.2,0-4,1.8-4,4v0 C72.5,110.4,74.3,112.2,76.5,112.2z" class="st2"/><path d="M76.5,128.2h67.2c2.2,0,4-1.8,4-4v0c0-2.2-1.8-4-4-4H76.5c-2.2,0-4,1.8-4,4v0 C72.5,126.4,74.3,128.2,76.5,128.2z" class="st2"/></g><g><path d="M37.1,29L37.1,29c7.2,0,13,5.8,13,13v33.8h-18c-4.4,0-8-3.6-8-8V42C24.1,34.8,29.9,29,37.1,29z" class="st3"/><path d="M37.1,29L37.1,29c7.2,0,13,5.8,13,13v33.8h-18c-4.4,0-8-3.6-8-8V42C24.1,34.8,29.9,29,37.1,29z" class="st1"/></g><g><path d="M182.1,157h-72c-4.4,0-8-3.6-8-8v-40c0-4.4,3.6-8,8-8h72c4.4,0,8,3.6,8,8v40C190.1,153.4,186.5,157,182.1,157 z" class="st4"/><path d="M147.7,101h34.4c4.4,0,8,3.6,8,8v40c0,4.4-3.6,8-8,8h-72c-4.4,0-8-3.6-8-8v-40c0-4.4,3.6-8,8-8h17" class="st1"/><g><path d="M113.1,140L113.1,140c1.1,0,2-0.9,2-2v-6c0-1.1-0.9-2-2-2l0,0c-1.1,0-2,0.9-2,2v6 C111.1,139.1,112,140,113.1,140z" class="st5"/><path d="M119.1,140L119.1,140c1.1,0,2-0.9,2-2v-6c0-1.1-0.9-2-2-2l0,0c-1.1,0-2,0.9-2,2v6 C117.1,139.1,118,140,119.1,140z" class="st5"/><path d="M125.1,140L125.1,140c1.1,0,2-0.9,2-2v-6c0-1.1-0.9-2-2-2l0,0c-1.1,0-2,0.9-2,2v6 C123.1,139.1,124,140,125.1,140z" class="st5"/><path d="M167.1,140L167.1,140c1.1,0,2-0.9,2-2v-6c0-1.1-0.9-2-2-2l0,0c-1.1,0-2,0.9-2,2v6 C165.1,139.1,166,140,167.1,140z" class="st5"/><path d="M173.1,140L173.1,140c1.1,0,2-0.9,2-2v-6c0-1.1-0.9-2-2-2l0,0c-1.1,0-2,0.9-2,2v6 C171.1,139.1,172,140,173.1,140z" class="st5"/><path d="M179.1,140L179.1,140c1.1,0,2-0.9,2-2v-6c0-1.1-0.9-2-2-2l0,0c-1.1,0-2,0.9-2,2v6 C177.1,139.1,178,140,179.1,140z" class="st5"/><path d="M137.1,140L137.1,140c1.1,0,2-0.9,2-2v-6c0-1.1-0.9-2-2-2l0,0c-1.1,0-2,0.9-2,2v6 C135.1,139.1,136,140,137.1,140z" class="st5"/><path d="M143.1,140L143.1,140c1.1,0,2-0.9,2-2v-6c0-1.1-0.9-2-2-2l0,0c-1.1,0-2,0.9-2,2v6 C141.1,139.1,142,140,143.1,140z" class="st5"/><path d="M149.1,140L149.1,140c1.1,0,2-0.9,2-2v-6c0-1.1-0.9-2-2-2l0,0c-1.1,0-2,0.9-2,2v6 C147.1,139.1,148,140,149.1,140z" class="st5"/><path d="M155.1,140L155.1,140c1.1,0,2-0.9,2-2v-6c0-1.1-0.9-2-2-2l0,0c-1.1,0-2,0.9-2,2v6 C153.1,139.1,154,140,155.1,140z" class="st5"/></g></g><g><g><line x1="24.4" x2="22.4" y1="94.6" y2="97.1" class="st6"/><line x1="14.4" x2="12.4" y1="104.9" y2="107.4" class="st6"/><line x1="24.8" x2="22.7" y1="107.1" y2="104.7" class="st6"/><line x1="14.1" x2="12" y1="97.3" y2="94.9" class="st6"/></g><g><line x1="191.6" x2="191.6" y1="73.5" y2="83.9" class="st6"/><line x1="196.8" x2="186.4" y1="78.7" y2="78.7" class="st6"/></g></g><circle cx="32.8" cy="126" r="6" class="st6"/></g></svg>